<svg id="svg" version="1.1" xmlns="http://www.w3.org/2000/svg" xmlns:xlink="http://www.w3.org/1999/xlink" width="400" height="148" viewBox="0, 0, 400,148"><g id="svgg"><path id="path0" d="M68.545 16.079 C 47.171 18.970,39.427 42.454,51.503 67.757 C 55.743 76.641,56.531 87.937,53.530 96.834 C 48.055 113.068,31.498 124.653,4.583 131.081 C -1.277 132.481,-1.300 132.525,4.250 131.737 C 13.280 130.457,19.712 129.304,24.490 128.110 C 26.340 127.647,26.905 127.716,28.325 128.578 C 32.348 131.020,37.047 130.100,43.833 125.543 C 60.881 114.093,64.760 94.011,54.731 69.124 C 49.253 55.531,48.540 45.304,52.547 37.783 C 59.976 23.841,81.474 27.584,81.552 42.833 C 81.576 47.445,80.360 51.013,76.668 57.169 C 64.811 76.943,61.273 97.486,68.011 107.446 C 75.672 118.771,92.455 114.651,95.973 100.583 C 98.307 91.251,95.210 79.906,86.890 67.307 C 84.847 64.212,84.792 63.960,85.745 62.056 C 89.065 55.419,104.762 44.979,119.167 39.828 C 130.252 35.864,140.170 35.375,145.940 38.509 L 147.129 39.155 149.288 36.944 C 160.389 25.579,158.810 19.730,145.000 21.060 C 136.025 21.923,127.296 24.589,117.663 29.407 C 93.089 41.699,76.392 62.201,84.418 70.227 C 86.614 72.423,89.833 79.189,90.337 82.666 C 92.268 96.010,74.957 100.090,71.596 87.083 C 69.500 78.977,73.350 66.852,82.761 51.917 C 90.981 38.871,92.202 29.262,86.542 22.158 C 82.917 17.608,75.574 15.128,68.545 16.079 M118.255 55.511 C 113.412 56.321,109.482 60.408,110.713 63.355 C 111.870 66.123,113.938 66.447,118.083 64.510 C 121.192 63.058,121.963 62.937,126.676 63.169 C 128.946 63.280,129.720 62.607,129.427 60.775 C 128.920 57.606,122.844 54.744,118.255 55.511 M98.734 60.081 C 93.153 61.295,91.119 68.111,95.138 72.131 C 99.666 76.659,107.319 73.474,107.331 67.057 C 107.340 62.527,103.142 59.122,98.734 60.081 M103.833 76.771 C 102.420 77.352,100.854 77.563,99.360 77.374 C 98.658 77.285,98.057 77.234,98.026 77.261 C 97.994 77.288,98.507 78.759,99.166 80.530 C 104.812 95.710,104.034 104.522,96.337 112.568 C 87.676 121.621,75.456 122.036,62.149 113.729 C 59.339 111.975,60.209 112.773,63.956 115.385 C 73.325 121.918,80.206 124.654,84.016 123.361 C 85.282 122.931,85.675 123.088,87.462 124.741 C 91.295 128.288,94.402 128.402,99.162 125.170 C 106.958 119.876,110.470 111.142,109.403 99.699 L 109.299 98.583 110.506 100.583 C 116.972 111.300,125.989 114.745,131.928 108.768 C 137.935 102.722,135.763 91.474,126.902 82.750 C 123.241 79.145,121.298 80.192,123.498 84.583 C 126.152 89.879,125.100 94.616,120.917 96.203 C 114.838 98.511,108.506 91.393,105.406 78.768 C 104.736 76.037,104.952 76.311,103.833 76.771 M157.829 96.428 C 157.602 97.026,157.626 97.368,157.926 97.796 L 158.186 98.167 278.831 98.167 C 388.286 98.167,399.500 98.142,399.738 97.905 C 400.001 97.642,400.088 96.756,399.899 96.264 C 399.807 96.024,388.989 96.000,278.895 96.000 L 157.992 96.000 157.829 96.428 " stroke="none" fill="#d41c5c" fill-rule="evenodd"></path><path id="path1" d="M280.167 51.167 L 280.167 86.833 287.500 86.833 L 294.833 86.833 294.833 77.448 L 294.833 68.062 296.120 66.039 C 296.827 64.927,297.420 64.032,297.437 64.050 C 297.454 64.068,298.941 68.958,300.742 74.917 C 302.543 80.875,304.094 85.994,304.188 86.292 L 304.359 86.833 312.096 86.833 C 316.352 86.833,319.833 86.769,319.833 86.691 C 319.833 86.612,317.171 77.941,313.917 67.420 C 310.662 56.900,308.000 48.215,308.000 48.121 C 308.000 48.027,309.819 44.984,312.042 41.360 C 314.265 37.736,316.109 34.708,316.140 34.631 C 316.171 34.555,314.833 34.513,313.165 34.538 L 310.134 34.583 302.525 46.643 L 294.917 58.703 294.874 37.102 L 294.832 15.500 287.499 15.500 L 280.167 15.500 280.167 51.167 M167.000 19.500 L 167.000 23.167 173.750 23.167 L 180.500 23.167 180.500 55.000 L 180.500 86.833 188.917 86.833 L 197.333 86.833 197.333 55.000 L 197.333 23.167 204.083 23.167 L 210.833 23.167 210.833 19.500 L 210.833 15.833 188.917 15.833 L 167.000 15.833 167.000 19.500 M337.917 33.005 C 326.917 34.111,322.704 38.919,323.891 49.009 L 324.020 50.102 327.609 50.979 C 329.583 51.462,331.233 51.823,331.275 51.781 C 331.316 51.739,331.202 51.115,331.022 50.394 C 329.058 42.564,331.057 38.100,336.699 37.717 C 341.026 37.423,343.241 39.974,343.248 45.258 C 343.253 49.306,340.835 52.147,335.000 54.953 C 327.945 58.346,326.564 59.226,324.726 61.496 C 318.669 68.974,320.135 83.035,327.337 86.553 C 333.107 89.371,340.043 87.863,343.380 83.064 L 344.223 81.851 344.851 83.141 C 347.313 88.200,354.744 89.136,363.042 85.432 C 363.569 85.197,364.000 84.947,364.001 84.877 C 364.001 84.807,363.690 83.680,363.308 82.373 L 362.614 79.996 362.182 80.283 C 360.143 81.640,359.020 81.347,358.279 79.268 C 358.150 78.907,358.065 73.262,358.000 60.667 C 357.890 39.495,358.004 40.689,355.799 37.703 C 353.194 34.178,345.737 32.218,337.917 33.005 M218.161 33.324 C 208.341 35.396,201.923 47.638,202.385 63.417 C 202.870 80.001,209.247 87.862,222.250 87.905 C 232.654 87.939,238.285 82.349,238.942 71.333 L 239.036 69.750 236.166 68.667 C 234.587 68.071,233.238 67.561,233.167 67.534 C 233.096 67.507,233.077 68.445,233.124 69.617 C 233.489 78.660,230.135 83.773,224.583 82.637 C 220.385 81.779,217.836 74.977,217.834 64.625 L 217.833 62.333 228.417 62.333 L 239.000 62.333 238.998 61.458 C 238.942 41.193,231.093 30.595,218.161 33.324 M379.250 33.449 C 376.194 34.008,373.060 34.337,369.708 34.450 L 366.667 34.552 366.667 60.693 L 366.667 86.833 374.000 86.833 L 381.333 86.833 381.335 70.625 C 381.336 53.999,381.400 51.949,382.009 48.852 C 382.910 44.271,384.362 41.486,385.620 41.928 C 387.075 42.440,387.362 44.929,386.422 48.912 C 386.206 49.831,385.942 51.071,385.836 51.667 C 385.731 52.262,385.604 52.919,385.554 53.125 L 385.464 53.500 390.565 53.500 C 393.371 53.500,395.667 53.481,395.667 53.458 C 395.667 53.435,395.931 51.954,396.253 50.167 C 398.132 39.721,396.616 34.250,391.556 33.218 C 387.801 32.452,384.732 34.544,382.140 39.636 L 381.339 41.208 381.295 37.146 L 381.250 33.083 379.250 33.449 M243.500 37.417 L 243.500 40.333 251.353 40.333 C 258.753 40.333,259.201 40.350,259.120 40.625 C 259.073 40.785,255.127 49.801,250.350 60.659 L 241.667 80.402 241.667 83.618 L 241.667 86.833 258.583 86.833 L 275.500 86.833 275.500 83.833 L 275.500 80.833 266.732 80.833 C 259.786 80.833,257.981 80.790,258.044 80.625 C 258.088 80.510,262.034 71.412,266.812 60.406 L 275.500 40.395 275.500 37.447 L 275.500 34.500 259.500 34.500 L 243.500 34.500 243.500 37.417 M223.460 38.871 C 225.087 40.388,225.995 45.287,226.226 53.792 L 226.295 56.333 221.987 56.333 L 217.679 56.333 217.752 55.292 C 217.793 54.719,217.863 52.938,217.910 51.333 C 218.193 41.513,220.569 36.176,223.460 38.871 M342.906 74.913 C 342.314 78.522,341.092 80.299,339.089 80.465 C 336.851 80.650,335.829 77.660,335.797 70.833 C 335.768 64.491,337.036 61.289,340.745 58.337 C 341.324 57.876,342.087 57.120,342.441 56.657 L 343.083 55.814 343.131 64.532 C 343.172 71.981,343.140 73.492,342.906 74.913 M226.166 106.146 C 223.246 107.100,222.760 108.661,222.768 117.083 C 222.773 123.094,222.880 124.131,223.650 125.629 C 224.822 127.907,228.051 128.429,230.059 126.665 C 230.760 126.050,230.711 126.040,231.057 126.875 C 231.308 127.481,231.343 127.500,232.158 127.500 L 233.000 127.500 233.000 122.167 L 233.000 116.833 230.500 116.833 L 228.000 116.833 228.000 118.167 L 228.000 119.500 228.850 119.500 L 229.701 119.500 229.632 121.542 C 229.541 124.217,229.120 125.000,227.771 125.000 C 226.175 125.000,225.964 123.942,226.030 116.295 C 226.093 109.099,226.159 108.833,227.883 108.833 C 229.109 108.833,229.667 109.872,229.667 112.157 L 229.667 113.333 231.358 113.333 L 233.050 113.333 232.946 111.864 C 232.747 109.069,231.867 107.291,230.274 106.463 C 229.526 106.075,226.985 105.879,226.166 106.146 M391.627 106.228 C 390.177 106.767,389.374 107.716,388.894 109.457 C 388.371 111.355,388.428 122.922,388.969 124.643 C 389.673 126.887,391.028 127.833,393.531 127.833 C 396.955 127.833,398.654 125.668,398.664 121.292 L 398.667 120.000 397.000 120.000 L 395.333 120.000 395.332 121.542 C 395.331 124.411,394.481 125.581,392.884 124.914 C 391.783 124.454,391.750 124.226,391.750 117.000 C 391.750 109.155,391.822 108.833,393.591 108.833 C 394.841 108.833,395.333 109.763,395.333 112.124 L 395.333 113.500 397.000 113.500 L 398.667 113.500 398.664 112.375 C 398.656 109.410,397.682 107.355,395.833 106.404 C 395.061 106.006,392.508 105.900,391.627 106.228 M244.457 106.405 C 243.104 106.888,242.735 107.867,242.679 111.125 L 242.667 111.833 241.833 111.833 L 241.000 111.833 241.000 113.083 L 241.000 114.333 241.831 114.333 L 242.663 114.333 242.706 120.875 L 242.750 127.417 244.292 127.465 L 245.833 127.513 245.833 120.932 L 245.833 114.351 246.708 114.300 L 247.583 114.250 247.632 113.042 L 247.681 111.833 246.757 111.833 L 245.833 111.833 245.833 110.526 C 245.833 109.007,246.057 108.667,247.055 108.667 L 247.667 108.667 247.667 107.417 L 247.667 106.167 246.375 106.174 C 245.665 106.178,244.801 106.282,244.457 106.405 M157.667 116.917 L 157.667 127.500 159.333 127.500 L 161.000 127.500 161.000 123.190 L 161.000 118.879 162.609 118.761 C 166.442 118.480,167.790 117.048,167.958 113.083 C 168.188 107.638,166.733 106.343,160.375 106.336 L 157.667 106.333 157.667 116.917 M235.833 107.833 L 235.833 109.333 237.417 109.333 L 239.000 109.333 239.000 107.833 L 239.000 106.333 237.417 106.333 L 235.833 106.333 235.833 107.833 M272.167 116.917 L 272.167 127.500 273.833 127.500 L 275.500 127.500 275.500 123.190 L 275.500 118.879 277.109 118.761 C 281.273 118.455,282.680 116.609,282.452 111.750 C 282.242 107.294,280.875 106.338,274.708 106.335 L 272.167 106.333 272.167 116.917 M333.500 107.833 L 333.500 109.333 335.000 109.333 L 336.500 109.333 336.500 107.833 L 336.500 106.333 335.000 106.333 L 333.500 106.333 333.500 107.833 M367.667 116.917 L 367.667 127.500 372.167 127.500 L 376.667 127.500 376.667 126.000 L 376.667 124.500 373.833 124.500 L 371.000 124.500 371.000 115.417 L 371.000 106.333 369.333 106.333 L 367.667 106.333 367.667 116.917 M378.167 116.917 L 378.167 127.500 382.667 127.500 L 387.167 127.500 387.167 126.000 L 387.167 124.500 384.333 124.500 L 381.500 124.500 381.500 115.417 L 381.500 106.333 379.833 106.333 L 378.167 106.333 378.167 116.917 M249.944 107.611 C 249.883 107.672,249.833 108.647,249.833 109.778 L 249.833 111.833 249.000 111.833 L 248.167 111.833 248.167 113.083 L 248.167 114.333 249.000 114.333 L 249.833 114.333 249.836 118.542 C 249.842 126.661,250.239 127.667,253.438 127.667 C 255.178 127.667,255.167 127.676,255.167 126.241 L 255.167 125.017 254.296 124.967 C 252.994 124.892,253.005 124.941,253.002 119.208 L 253.000 114.333 254.000 114.333 L 255.000 114.333 255.000 113.083 L 255.000 111.833 254.000 111.833 L 253.000 111.833 253.000 109.667 L 253.000 107.500 251.528 107.500 C 250.718 107.500,250.006 107.550,249.944 107.611 M163.408 109.424 C 164.300 109.796,164.659 110.680,164.659 112.500 C 164.659 114.944,164.096 115.679,162.042 115.914 L 161.000 116.033 161.000 112.600 L 161.000 109.167 161.896 109.167 C 162.389 109.167,163.069 109.282,163.408 109.424 M278.011 109.526 C 278.872 110.010,279.168 110.786,279.163 112.545 C 279.157 114.941,278.582 115.680,276.542 115.914 L 275.500 116.033 275.500 112.600 L 275.500 109.167 276.436 109.167 C 277.085 109.167,277.567 109.277,278.011 109.526 M174.391 111.919 C 173.914 112.157,173.359 112.607,173.108 112.959 L 172.667 113.579 172.667 112.706 L 172.667 111.833 171.250 111.833 L 169.833 111.833 169.833 119.667 L 169.833 127.500 171.333 127.500 L 172.833 127.500 172.837 122.125 C 172.843 114.979,172.969 114.552,175.030 114.701 L 176.000 114.771 176.000 113.136 C 176.000 111.229,175.911 111.162,174.391 111.919 M180.417 111.679 C 178.023 112.277,177.336 114.059,177.336 119.667 C 177.336 126.268,178.635 128.282,182.548 127.743 C 185.573 127.327,186.327 125.717,186.327 119.667 C 186.327 112.835,184.683 110.614,180.417 111.679 M193.917 111.766 C 193.642 111.915,193.060 112.382,192.625 112.804 L 191.833 113.571 191.833 112.702 L 191.833 111.833 190.417 111.833 L 189.000 111.833 189.000 119.667 L 189.000 127.500 190.500 127.500 L 192.000 127.500 192.000 121.487 L 192.000 115.474 192.487 114.987 C 193.075 114.400,193.711 114.353,194.074 114.870 C 194.297 115.189,194.333 116.092,194.333 121.370 L 194.333 127.500 195.833 127.500 L 197.333 127.500 197.333 121.513 L 197.333 115.526 197.772 115.004 C 198.119 114.592,198.320 114.493,198.727 114.533 C 199.637 114.622,199.662 114.802,199.664 121.458 L 199.667 127.500 201.167 127.500 L 202.667 127.500 202.667 121.222 C 202.667 114.064,202.569 113.086,201.770 112.214 C 200.770 111.122,199.330 111.331,197.883 112.776 L 197.182 113.475 196.883 112.873 C 196.307 111.716,194.946 111.208,193.917 111.766 M208.417 111.646 C 207.139 111.982,206.394 112.629,205.800 113.919 C 205.197 115.227,205.207 124.119,205.813 125.460 C 207.477 129.141,213.169 128.410,213.973 124.411 C 214.575 121.411,214.138 114.494,213.264 113.186 C 212.394 111.885,210.182 111.182,208.417 111.646 M258.792 111.766 C 257.153 112.271,256.414 113.569,256.529 115.745 C 256.615 117.379,257.050 118.162,259.075 120.324 C 261.368 122.774,261.780 123.721,260.988 124.728 C 260.143 125.801,258.833 124.925,258.833 123.287 C 258.833 122.805,258.814 122.793,258.208 122.893 C 257.865 122.950,257.254 122.997,256.851 122.998 L 256.119 123.000 256.220 123.965 C 256.580 127.407,260.077 128.967,262.792 126.896 C 265.094 125.140,264.579 121.825,261.502 118.586 C 259.335 116.304,258.813 115.245,259.426 114.370 C 260.060 113.466,261.230 114.056,261.444 115.388 C 261.532 115.937,261.596 116.013,261.898 115.932 C 262.092 115.880,262.690 115.837,263.227 115.836 L 264.205 115.833 264.086 115.042 C 263.672 112.264,261.515 110.929,258.792 111.766 M288.860 111.935 C 288.342 112.193,287.821 112.615,287.577 112.973 L 287.167 113.577 287.167 112.705 L 287.167 111.833 285.750 111.833 L 284.333 111.833 284.333 119.667 L 284.333 127.500 285.833 127.500 L 287.333 127.500 287.337 122.125 C 287.343 114.979,287.469 114.552,289.530 114.701 L 290.500 114.771 290.500 113.136 C 290.500 111.223,290.414 111.160,288.860 111.935 M294.917 111.679 C 292.508 112.280,291.842 114.008,291.838 119.667 C 291.834 125.395,292.525 127.098,295.083 127.669 C 298.130 128.349,300.400 126.582,300.621 123.357 L 300.714 122.000 299.209 122.000 L 297.703 122.000 297.639 123.268 C 297.568 124.683,297.235 125.167,296.333 125.167 C 295.235 125.167,294.854 124.263,294.841 121.625 L 294.833 120.167 297.833 120.167 L 300.833 120.167 300.830 118.292 C 300.822 113.084,298.718 110.730,294.917 111.679 M308.077 111.677 C 307.798 111.758,307.254 112.095,306.868 112.425 L 306.167 113.026 306.167 112.346 L 306.167 111.667 304.667 111.667 L 303.167 111.667 303.167 122.000 L 303.167 132.333 304.667 132.333 L 306.167 132.333 306.167 129.213 C 306.167 126.350,306.188 126.123,306.424 126.460 C 307.700 128.282,310.445 128.028,311.398 126.000 C 311.880 124.973,312.031 115.697,311.593 113.987 C 311.063 111.917,309.894 111.149,308.077 111.677 M317.302 111.722 C 315.512 112.228,314.494 113.420,314.178 115.375 L 314.050 116.167 315.503 116.167 L 316.956 116.167 317.055 115.559 C 317.401 113.427,319.667 113.695,319.796 115.884 L 319.857 116.917 318.423 117.656 C 315.629 119.096,314.112 121.001,313.893 123.343 C 313.544 127.086,316.713 129.018,319.372 126.684 L 319.969 126.159 320.083 126.829 L 320.196 127.500 321.702 127.500 L 323.208 127.500 323.085 126.958 C 323.017 126.660,322.910 123.679,322.847 120.333 C 322.727 113.999,322.717 113.913,321.952 112.788 C 321.253 111.758,319.001 111.242,317.302 111.722 M330.807 111.662 C 330.079 111.882,329.444 112.327,328.958 112.958 L 328.500 113.554 328.500 112.694 L 328.500 111.833 327.083 111.833 L 325.667 111.833 325.667 119.667 L 325.667 127.500 327.167 127.500 L 328.667 127.500 328.679 122.375 C 328.697 114.915,328.800 114.552,330.863 114.701 L 331.833 114.771 331.833 113.136 C 331.833 111.350,331.834 111.352,330.807 111.662 M344.500 111.755 C 344.179 111.899,343.560 112.366,343.125 112.793 L 342.333 113.571 342.333 112.702 L 342.333 111.833 340.917 111.833 L 339.500 111.833 339.500 119.667 L 339.500 127.500 341.000 127.500 L 342.500 127.500 342.500 121.577 C 342.500 115.074,342.496 115.103,343.523 114.571 C 345.052 113.781,345.167 114.259,345.167 121.425 L 345.167 127.500 346.750 127.500 L 348.333 127.500 348.332 121.792 C 348.330 112.819,348.082 111.791,345.862 111.571 C 345.362 111.521,344.875 111.587,344.500 111.755 M353.750 111.646 C 351.848 112.148,350.957 113.450,350.679 116.133 C 350.378 119.044,350.817 121.365,351.875 122.459 L 352.400 123.001 351.760 123.657 C 350.711 124.731,350.750 126.573,351.829 126.915 C 352.303 127.066,352.249 127.259,351.666 127.500 C 350.980 127.785,350.205 128.708,350.076 129.396 C 349.379 133.115,358.171 133.753,360.025 130.118 C 361.283 127.651,359.612 125.643,355.833 125.081 C 353.891 124.792,353.502 124.577,353.790 123.946 C 353.943 123.608,354.135 123.528,355.020 123.428 C 358.064 123.083,359.533 120.115,358.861 115.667 C 358.669 114.397,358.824 114.167,359.865 114.167 L 360.500 114.167 360.500 112.833 C 360.500 111.874,360.441 111.500,360.291 111.500 C 359.760 111.500,358.900 111.867,358.474 112.275 C 358.046 112.685,357.981 112.702,357.711 112.465 C 356.870 111.727,354.948 111.330,353.750 111.646 M235.833 119.667 L 235.833 127.500 237.417 127.500 L 239.000 127.500 239.000 119.667 L 239.000 111.833 237.417 111.833 L 235.833 111.833 235.833 119.667 M333.500 119.667 L 333.500 127.500 335.000 127.500 L 336.500 127.500 336.500 119.667 L 336.500 111.833 335.000 111.833 L 333.500 111.833 333.500 119.667 M355.401 114.316 C 356.374 115.391,356.040 120.610,354.980 120.887 C 354.039 121.133,353.636 120.415,353.535 118.311 C 353.369 114.871,354.232 113.024,355.401 114.316 M182.821 114.606 C 183.152 115.026,183.167 115.243,183.167 119.697 L 183.167 124.348 182.758 124.758 C 181.880 125.635,180.713 125.112,180.488 123.739 C 180.316 122.688,180.312 116.667,180.483 115.626 C 180.724 114.167,182.028 113.598,182.821 114.606 M210.657 114.491 C 211.384 115.217,211.403 123.967,210.679 124.737 C 209.977 125.484,208.849 125.262,208.518 124.312 C 208.276 123.619,208.267 115.699,208.508 115.053 C 208.846 114.140,210.004 113.838,210.657 114.491 M297.258 114.576 C 297.624 114.942,297.667 115.124,297.667 116.326 L 297.667 117.667 296.250 117.667 L 294.833 117.667 294.841 116.958 C 294.866 114.507,296.036 113.354,297.258 114.576 M308.217 114.542 C 308.920 115.062,309.120 123.367,308.454 124.383 C 308.094 124.933,307.482 124.974,306.706 124.500 L 306.161 124.168 306.206 119.632 L 306.250 115.096 306.816 114.715 C 307.457 114.284,307.810 114.240,308.217 114.542 M319.833 121.733 L 319.833 123.799 319.244 124.316 C 317.357 125.973,315.981 123.394,317.597 121.229 C 317.966 120.734,319.400 119.667,319.695 119.667 C 319.771 119.667,319.833 120.596,319.833 121.733 M356.246 127.850 C 358.604 128.443,357.750 130.429,355.145 130.408 C 353.903 130.397,353.235 130.081,353.071 129.427 C 352.735 128.088,354.235 127.343,356.246 127.850 " stroke="none" fill="#044c5c" fill-rule="evenodd"></path></g></svg>